<svg width="229" height="455" viewBox="0 0 229 455" fill="none" xmlns="http://www.w3.org/2000/svg">
<path d="M69.9043 22.7132C69.9043 22.7132 65.5427 43.0485 57.899 53.6168C50.5022 63.8436 37.8711 63.0963 32.999 74.6484C27.793 86.9922 41.1274 95.8381 37.0008 108.556C32.8458 121.362 17.3754 121.441 13.4347 134.309C8.65919 149.904 25.0456 158.419 24.1061 174.656C22.9793 194.13 4.6337 200.732 2.7633 220.153C0.399531 244.696 2.48923 266.693 24.1061 279.814C33.8791 285.745 41.7708 291.495 52.5632 287.539C62.5649 283.873 62.3192 274.46 68.5704 266.079C72.4491 271.234 76.0324 273.689 82.3543 275.521C97.393 279.88 97.625 255.136 116.375 256.5C137 258 132.573 279.859 147.717 277.238C154.84 276.005 156.515 268.835 163.724 268.225C175.751 267.206 175.793 283.982 187.29 287.539C216.558 296.597 228.434 251.5 226.863 221.869C225.81 202.016 206.513 195.345 205.076 175.514C203.855 158.682 220.565 149.541 215.302 133.451C211.333 121.315 198.036 120.512 193.515 108.556C188.57 95.479 198.406 86.6664 194.849 72.9315C191.292 59.1966 178.842 74.2191 169.504 52.3291C160.167 30.4392 147.272 -3.46892 112.145 2.11089C77.0186 7.69069 69.9043 22.7132 69.9043 22.7132Z" fill="#16A34A"/>
<path d="M68.5704 266.079C72.4491 271.234 76.0324 273.689 82.3543 275.521C97.393 279.88 97.625 255.136 116.375 256.5C137 258 132.573 279.859 147.717 277.238C154.84 276.005 156.515 268.835 163.724 268.225C175.751 267.206 175.793 283.982 187.29 287.539C216.558 296.597 228.434 251.5 226.863 221.869C225.81 202.016 206.513 195.345 205.076 175.514C203.855 158.682 220.565 149.541 215.302 133.451C211.333 121.315 198.036 120.512 193.515 108.556C188.57 95.479 198.406 86.6664 194.849 72.9315C191.292 59.1966 178.842 74.2191 169.504 52.3291C160.167 30.4392 147.272 -3.46892 112.145 2.11089C77.0186 7.69069 69.9043 22.7132 69.9043 22.7132C69.9043 22.7132 65.5427 43.0485 57.899 53.6168C50.5022 63.8436 37.8711 63.0963 32.999 74.6484C27.793 86.9922 41.1274 95.8381 37.0008 108.556C32.8458 121.362 17.3754 121.441 13.4347 134.309C8.65919 149.904 25.0456 158.419 24.1061 174.656C22.9793 194.13 4.6337 200.732 2.7633 220.153C0.399531 244.696 2.48923 266.693 24.1061 279.814C33.8791 285.745 41.7708 291.495 52.5632 287.539C62.5649 283.873 62.3192 274.46 68.5704 266.079ZM68.5704 266.079C58.3437 242.901 67.2365 210.281 68.5704 208.564" stroke="#292524" stroke-width="3" stroke-linecap="round" stroke-linejoin="round"/>
<path d="M128.889 263.822C128 253.409 102.252 256.88 101.778 263.822C101.304 270.765 92 453 92 453H140C140 453 129.778 274.236 128.889 263.822Z" fill="url(#paint0_linear)" stroke="#292524" stroke-width="3"/>
<g filter="url(#filter0_d)">
<path d="M112.25 358.5C112.25 356.843 113.593 355.5 115.25 355.5H134.75V361.5H115.25C113.593 361.5 112.25 360.157 112.25 358.5Z" fill="#292524"/>
</g>
<g filter="url(#filter1_d)">
<path d="M98.75 329.25H116.375C117.411 329.25 118.25 330.089 118.25 331.125C118.25 332.161 117.411 333 116.375 333H98.75V329.25Z" fill="#292524"/>
</g>
<g filter="url(#filter2_d)">
<path d="M95.75 376.5H112.25C113.907 376.5 115.25 377.843 115.25 379.5C115.25 381.157 113.907 382.5 112.25 382.5H95.75V376.5Z" fill="#292524"/>
</g>
<g filter="url(#filter3_d)">
<path d="M92.75 418.5H110.75C112.407 418.5 113.75 419.843 113.75 421.5C113.75 423.157 112.407 424.5 110.75 424.5H92.75V418.5Z" fill="#292524"/>
</g>
<g filter="url(#filter4_d)">
<path d="M116 308.625C116 307.175 117.175 306 118.625 306H131V311.25H118.625C117.175 311.25 116 310.075 116 308.625Z" fill="#292524"/>
</g>
<g filter="url(#filter5_d)">
<path d="M115.25 439.5C115.25 437.843 116.593 436.5 118.25 436.5H139.25V442.5H118.25C116.593 442.5 115.25 441.157 115.25 439.5Z" fill="#292524"/>
</g>
<g filter="url(#filter6_d)">
<path d="M112.25 397.5C112.25 395.843 113.593 394.5 115.25 394.5H136.25V400.5H115.25C113.593 400.5 112.25 399.157 112.25 397.5Z" fill="#292524"/>
</g>
<defs>
<filter id="filter0_d" x="109.25" y="352.5" width="28.5" height="12" filterUnits="userSpaceOnUse" color-interpolation-filters="sRGB">
<feFlood flood-opacity="0" result="BackgroundImageFix"/>
<feColorMatrix in="SourceAlpha" type="matrix" values="0 0 0 0 0 0 0 0 0 0 0 0 0 0 0 0 0 0 127 0"/>
<feMorphology radius="1" operator="erode" in="SourceAlpha" result="effect1_dropShadow"/>
<feOffset/>
<feGaussianBlur stdDeviation="2"/>
<feColorMatrix type="matrix" values="0 0 0 0 0 0 0 0 0 0 0 0 0 0 0 0 0 0 0.25 0"/>
<feBlend mode="normal" in2="BackgroundImageFix" result="effect1_dropShadow"/>
<feBlend mode="normal" in="SourceGraphic" in2="effect1_dropShadow" result="shape"/>
</filter>
<filter id="filter1_d" x="95.75" y="326.25" width="25.5" height="9.75" filterUnits="userSpaceOnUse" color-interpolation-filters="sRGB">
<feFlood flood-opacity="0" result="BackgroundImageFix"/>
<feColorMatrix in="SourceAlpha" type="matrix" values="0 0 0 0 0 0 0 0 0 0 0 0 0 0 0 0 0 0 127 0"/>
<feMorphology radius="1" operator="erode" in="SourceAlpha" result="effect1_dropShadow"/>
<feOffset/>
<feGaussianBlur stdDeviation="2"/>
<feColorMatrix type="matrix" values="0 0 0 0 0 0 0 0 0 0 0 0 0 0 0 0 0 0 0.25 0"/>
<feBlend mode="normal" in2="BackgroundImageFix" result="effect1_dropShadow"/>
<feBlend mode="normal" in="SourceGraphic" in2="effect1_dropShadow" result="shape"/>
</filter>
<filter id="filter2_d" x="92.75" y="373.5" width="25.5" height="12" filterUnits="userSpaceOnUse" color-interpolation-filters="sRGB">
<feFlood flood-opacity="0" result="BackgroundImageFix"/>
<feColorMatrix in="SourceAlpha" type="matrix" values="0 0 0 0 0 0 0 0 0 0 0 0 0 0 0 0 0 0 127 0"/>
<feMorphology radius="1" operator="erode" in="SourceAlpha" result="effect1_dropShadow"/>
<feOffset/>
<feGaussianBlur stdDeviation="2"/>
<feColorMatrix type="matrix" values="0 0 0 0 0 0 0 0 0 0 0 0 0 0 0 0 0 0 0.25 0"/>
<feBlend mode="normal" in2="BackgroundImageFix" result="effect1_dropShadow"/>
<feBlend mode="normal" in="SourceGraphic" in2="effect1_dropShadow" result="shape"/>
</filter>
<filter id="filter3_d" x="89.75" y="415.5" width="27" height="12" filterUnits="userSpaceOnUse" color-interpolation-filters="sRGB">
<feFlood flood-opacity="0" result="BackgroundImageFix"/>
<feColorMatrix in="SourceAlpha" type="matrix" values="0 0 0 0 0 0 0 0 0 0 0 0 0 0 0 0 0 0 127 0"/>
<feMorphology radius="1" operator="erode" in="SourceAlpha" result="effect1_dropShadow"/>
<feOffset/>
<feGaussianBlur stdDeviation="2"/>
<feColorMatrix type="matrix" values="0 0 0 0 0 0 0 0 0 0 0 0 0 0 0 0 0 0 0.25 0"/>
<feBlend mode="normal" in2="BackgroundImageFix" result="effect1_dropShadow"/>
<feBlend mode="normal" in="SourceGraphic" in2="effect1_dropShadow" result="shape"/>
</filter>
<filter id="filter4_d" x="113" y="303" width="21" height="11.25" filterUnits="userSpaceOnUse" color-interpolation-filters="sRGB">
<feFlood flood-opacity="0" result="BackgroundImageFix"/>
<feColorMatrix in="SourceAlpha" type="matrix" values="0 0 0 0 0 0 0 0 0 0 0 0 0 0 0 0 0 0 127 0"/>
<feMorphology radius="1" operator="erode" in="SourceAlpha" result="effect1_dropShadow"/>
<feOffset/>
<feGaussianBlur stdDeviation="2"/>
<feColorMatrix type="matrix" values="0 0 0 0 0 0 0 0 0 0 0 0 0 0 0 0 0 0 0.25 0"/>
<feBlend mode="normal" in2="BackgroundImageFix" result="effect1_dropShadow"/>
<feBlend mode="normal" in="SourceGraphic" in2="effect1_dropShadow" result="shape"/>
</filter>
<filter id="filter5_d" x="112.25" y="433.5" width="30" height="12" filterUnits="userSpaceOnUse" color-interpolation-filters="sRGB">
<feFlood flood-opacity="0" result="BackgroundImageFix"/>
<feColorMatrix in="SourceAlpha" type="matrix" values="0 0 0 0 0 0 0 0 0 0 0 0 0 0 0 0 0 0 127 0"/>
<feMorphology radius="1" operator="erode" in="SourceAlpha" result="effect1_dropShadow"/>
<feOffset/>
<feGaussianBlur stdDeviation="2"/>
<feColorMatrix type="matrix" values="0 0 0 0 0 0 0 0 0 0 0 0 0 0 0 0 0 0 0.25 0"/>
<feBlend mode="normal" in2="BackgroundImageFix" result="effect1_dropShadow"/>
<feBlend mode="normal" in="SourceGraphic" in2="effect1_dropShadow" result="shape"/>
</filter>
<filter id="filter6_d" x="109.25" y="391.5" width="30" height="12" filterUnits="userSpaceOnUse" color-interpolation-filters="sRGB">
<feFlood flood-opacity="0" result="BackgroundImageFix"/>
<feColorMatrix in="SourceAlpha" type="matrix" values="0 0 0 0 0 0 0 0 0 0 0 0 0 0 0 0 0 0 127 0"/>
<feMorphology radius="1" operator="erode" in="SourceAlpha" result="effect1_dropShadow"/>
<feOffset/>
<feGaussianBlur stdDeviation="2"/>
<feColorMatrix type="matrix" values="0 0 0 0 0 0 0 0 0 0 0 0 0 0 0 0 0 0 0.25 0"/>
<feBlend mode="normal" in2="BackgroundImageFix" result="effect1_dropShadow"/>
<feBlend mode="normal" in="SourceGraphic" in2="effect1_dropShadow" result="shape"/>
</filter>
<linearGradient id="paint0_linear" x1="54.125" y1="390.375" x2="177.125" y2="389.625" gradientUnits="userSpaceOnUse">
<stop offset="0.32358" stop-color="#D6D3D1"/>
<stop offset="0.512562" stop-color="white" stop-opacity="0.01"/>
<stop offset="0.643123" stop-color="#E7E5E4"/>
</linearGradient>
</defs>
</svg>
