<svg width="4394" height="1020" viewBox="0 0 4394 1020" fill="none" xmlns="http://www.w3.org/2000/svg">
<path d="M793.141 487V842H768.641V487H793.141Z" fill="#27272A"/>
<path d="M1254.34 487V850.5H1253.34L979.836 542.5L980.336 842H956.336V479.5H957.836L1231.34 790L1230.84 487H1254.34Z" fill="#27272A"/>
<path d="M1687.47 487L1536.47 858.5L1385.47 487H1413.97L1537.97 801L1659.47 487H1687.47Z" fill="#27272A"/>
<path d="M2037.54 487V510.5H1843.04V651.5H2018.04V675H1843.04V818.5H2044.54V842H1818.54V487H2037.54Z" fill="#27272A"/>
<path d="M2365.38 527C2353.38 521.333 2340.05 516.5 2325.38 512.5C2310.71 508.5 2296.38 506.5 2282.38 506.5C2259.05 506.5 2240.38 512.333 2226.38 524C2212.38 535.333 2205.38 550 2205.38 568C2205.38 580.667 2209.05 591.5 2216.38 600.5C2224.05 609.167 2233.71 616.5 2245.38 622.5C2257.05 628.167 2272.05 634.5 2290.38 641.5C2310.38 648.833 2326.88 656.333 2339.88 664C2353.21 671.667 2364.38 682.167 2373.38 695.5C2382.38 708.5 2386.88 725.333 2386.88 746C2386.88 765.667 2382.21 783.167 2372.88 798.5C2363.55 813.5 2350.38 825.167 2333.38 833.5C2316.71 841.833 2297.55 846 2275.88 846C2238.21 846 2200.88 833.833 2163.88 809.5L2175.38 789.5C2187.71 798.833 2202.88 807 2220.88 814C2238.88 821 2256.38 824.5 2273.38 824.5C2288.38 824.5 2302.55 821.667 2315.88 816C2329.55 810 2340.55 801.167 2348.88 789.5C2357.55 777.5 2361.88 763.167 2361.88 746.5C2361.88 730.833 2357.88 717.667 2349.88 707C2342.21 696.333 2332.38 687.833 2320.38 681.5C2308.71 674.833 2293.88 668.167 2275.88 661.5C2255.88 654.167 2239.38 647.167 2226.38 640.5C2213.38 633.5 2202.38 624.333 2193.38 613C2184.71 601.667 2180.38 587.5 2180.38 570.5C2180.38 553.833 2184.55 539.167 2192.88 526.5C2201.55 513.5 2213.38 503.5 2228.38 496.5C2243.71 489.167 2260.71 485.333 2279.38 485C2295.38 485 2311.88 487.167 2328.88 491.5C2346.21 495.833 2361.55 501.333 2374.88 508L2365.38 527Z" fill="#27272A"/>
<path d="M2727.52 487V510.5H2623.02V842H2598.52V510.5H2495.02V487H2727.52Z" fill="#27272A"/>
<path d="M3065.8 480.5H3164.8C3209.8 480.5 3246.97 489.5 3276.3 507.5C3305.97 525.167 3327.47 548.167 3340.8 576.5C3354.47 604.5 3361.3 634.167 3361.3 665.5C3361.3 700.5 3353.13 731.5 3336.8 758.5C3320.47 785.167 3298.63 805.833 3271.3 820.5C3243.97 834.833 3214.3 842 3182.3 842H3065.8V480.5ZM3172.8 795C3199.47 795 3223.3 789.833 3244.3 779.5C3265.3 768.833 3281.63 753.5 3293.3 733.5C3305.3 713.5 3311.3 689.667 3311.3 662C3311.3 633.667 3305.13 609.333 3292.8 589C3280.47 568.667 3263.97 553.333 3243.3 543C3222.97 532.333 3200.97 527 3177.3 527H3114.3V795H3172.8Z" fill="#27272A"/>
<path d="M3470.25 661.5C3470.25 628.5 3478.59 597.833 3495.25 569.5C3511.92 541.167 3534.25 518.667 3562.25 502C3590.59 485 3621.42 476.5 3654.75 476.5C3687.75 476.5 3718.42 485 3746.75 502C3775.09 518.667 3797.59 541.167 3814.25 569.5C3831.25 597.833 3839.75 628.5 3839.75 661.5C3839.75 694.833 3831.42 725.667 3814.75 754C3798.09 782.333 3775.42 804.833 3746.75 821.5C3718.42 837.833 3687.75 846 3654.75 846C3621.42 846 3590.59 837.833 3562.25 821.5C3533.92 805.167 3511.42 783 3494.75 755C3478.42 726.667 3470.25 695.5 3470.25 661.5ZM3520.25 662C3520.25 686.667 3526.25 709.5 3538.25 730.5C3550.25 751.5 3566.59 768.167 3587.25 780.5C3608.25 792.833 3631.09 799 3655.75 799C3680.42 799 3702.92 793 3723.25 781C3743.92 768.667 3760.09 752 3771.75 731C3783.75 709.667 3789.75 686.5 3789.75 661.5C3789.75 636.5 3783.75 613.333 3771.75 592C3759.75 570.667 3743.42 553.833 3722.75 541.5C3702.09 529.167 3679.42 523 3654.75 523C3630.09 523 3607.42 529.333 3586.75 542C3566.09 554.333 3549.75 571.167 3537.75 592.5C3526.09 613.833 3520.25 637 3520.25 662Z" fill="#27272A"/>
<path d="M4330.96 469V842H4282.96V608L4149.97 796.5H4148.96L4018.46 614.5V842H3971.47V469H3971.96L4149.97 721L4330.47 469H4330.96Z" fill="#27272A"/>
<path d="M645.5 859V584.75L407.75 359L170 584.5V859H539.013V633L409.331 507.25L368.74 546.5L485.77 657.5V809H223.243V609L407.75 434L592.257 609V859H645.5Z" fill="#27272A"/>
<path d="M661 1020V1000H20V281L994 20.5L2527 284L3172 124L4366 284V263L3172 103L2527 263L994 0L0 266L0.5 1020H661Z" fill="#18181B"/>
</svg>
